<mxfile host="app.diagrams.net" modified="2024-03-22T04:27:24.849Z" agent="Mozilla/5.0 (X11; CrOS x86_64 14541.0.0) AppleWebKit/537.36 (KHTML, like Gecko) Chrome/121.0.0.0 Safari/537.36" etag="dpYd1z0pJh47sBMK-9Rd" version="24.0.7" type="device">
  <diagram id="C5RBs43oDa-KdzZeNtuy" name="Page-1">
    <mxGraphModel dx="714" dy="761" grid="1" gridSize="10" guides="1" tooltips="1" connect="1" arrows="1" fold="1" page="1" pageScale="1" pageWidth="827" pageHeight="1169" math="0" shadow="0">
      <root>
        <mxCell id="WIyWlLk6GJQsqaUBKTNV-0" />
        <mxCell id="WIyWlLk6GJQsqaUBKTNV-1" parent="WIyWlLk6GJQsqaUBKTNV-0" />
        <mxCell id="TeFZaFZlkvXpoe0MmAnS-0" value="Start" style="strokeWidth=2;html=1;shape=mxgraph.flowchart.start_1;whiteSpace=wrap;" parent="WIyWlLk6GJQsqaUBKTNV-1" vertex="1">
          <mxGeometry x="190" y="130" width="130" height="80" as="geometry" />
        </mxCell>
        <mxCell id="TeFZaFZlkvXpoe0MmAnS-1" value="int _printf(const char *format, ...);" style="strokeWidth=2;html=1;shape=mxgraph.flowchart.annotation_2;align=left;labelPosition=right;pointerEvents=1;" parent="WIyWlLk6GJQsqaUBKTNV-1" vertex="1">
          <mxGeometry x="320" y="120" width="50" height="100" as="geometry" />
        </mxCell>
        <mxCell id="B_KzlVDRb6Arm7_QmCh6-0" value="" style="endArrow=classic;html=1;rounded=0;exitX=0.5;exitY=1;exitDx=0;exitDy=0;exitPerimeter=0;" parent="WIyWlLk6GJQsqaUBKTNV-1" source="TeFZaFZlkvXpoe0MmAnS-0" edge="1">
          <mxGeometry width="50" height="50" relative="1" as="geometry">
            <mxPoint x="390" y="420" as="sourcePoint" />
            <mxPoint x="255" y="280" as="targetPoint" />
          </mxGeometry>
        </mxCell>
        <mxCell id="WpgpHtHuyaECsouaymJJ-0" value="If format == NULL ||&lt;div&gt;&lt;div&gt;&amp;nbsp;format&amp;nbsp; [i] = =% &amp;amp;&amp;amp;&lt;/div&gt;&lt;div&gt;format [i + 1] == &#39;\0&#39;&lt;/div&gt;&lt;/div&gt;" style="strokeWidth=2;html=1;shape=mxgraph.flowchart.decision;whiteSpace=wrap;" vertex="1" parent="WIyWlLk6GJQsqaUBKTNV-1">
          <mxGeometry x="150" y="280" width="215" height="130" as="geometry" />
        </mxCell>
        <mxCell id="WpgpHtHuyaECsouaymJJ-1" value="" style="endArrow=classic;html=1;rounded=0;fontSize=12;startSize=8;endSize=8;curved=1;exitX=0.5;exitY=1;exitDx=0;exitDy=0;exitPerimeter=0;" edge="1" parent="WIyWlLk6GJQsqaUBKTNV-1" source="WpgpHtHuyaECsouaymJJ-8" target="WpgpHtHuyaECsouaymJJ-2">
          <mxGeometry width="50" height="50" relative="1" as="geometry">
            <mxPoint x="340" y="420" as="sourcePoint" />
            <mxPoint x="258" y="500" as="targetPoint" />
          </mxGeometry>
        </mxCell>
        <mxCell id="WpgpHtHuyaECsouaymJJ-2" value="Return (-1)" style="rounded=0;whiteSpace=wrap;html=1;shape=parallelogram;perimeter=parallelogramPerimeter;fixedSize=1;" vertex="1" parent="WIyWlLk6GJQsqaUBKTNV-1">
          <mxGeometry x="195" y="590" width="120" height="60" as="geometry" />
        </mxCell>
        <mxCell id="WpgpHtHuyaECsouaymJJ-3" value="" style="endArrow=classic;html=1;rounded=0;fontSize=12;startSize=8;endSize=8;curved=1;exitX=0.5;exitY=1;exitDx=0;exitDy=0;" edge="1" parent="WIyWlLk6GJQsqaUBKTNV-1" source="WpgpHtHuyaECsouaymJJ-2" target="WpgpHtHuyaECsouaymJJ-4">
          <mxGeometry width="50" height="50" relative="1" as="geometry">
            <mxPoint x="290" y="480" as="sourcePoint" />
            <mxPoint x="258" y="590" as="targetPoint" />
          </mxGeometry>
        </mxCell>
        <mxCell id="WpgpHtHuyaECsouaymJJ-4" value="END" style="ellipse;whiteSpace=wrap;html=1;" vertex="1" parent="WIyWlLk6GJQsqaUBKTNV-1">
          <mxGeometry x="190" y="760" width="120" height="80" as="geometry" />
        </mxCell>
        <mxCell id="WpgpHtHuyaECsouaymJJ-5" value="" style="endArrow=classic;html=1;rounded=0;fontSize=12;startSize=8;endSize=8;curved=1;exitX=1;exitY=0.5;exitDx=0;exitDy=0;exitPerimeter=0;entryX=0;entryY=0.5;entryDx=0;entryDy=0;" edge="1" parent="WIyWlLk6GJQsqaUBKTNV-1" source="WpgpHtHuyaECsouaymJJ-7" target="WpgpHtHuyaECsouaymJJ-13">
          <mxGeometry width="50" height="50" relative="1" as="geometry">
            <mxPoint x="290" y="480" as="sourcePoint" />
            <mxPoint x="510" y="345" as="targetPoint" />
          </mxGeometry>
        </mxCell>
        <mxCell id="WpgpHtHuyaECsouaymJJ-9" value="" style="endArrow=classic;html=1;rounded=0;fontSize=12;startSize=8;endSize=8;curved=1;exitX=0.5;exitY=1;exitDx=0;exitDy=0;exitPerimeter=0;" edge="1" parent="WIyWlLk6GJQsqaUBKTNV-1" source="WpgpHtHuyaECsouaymJJ-0" target="WpgpHtHuyaECsouaymJJ-8">
          <mxGeometry width="50" height="50" relative="1" as="geometry">
            <mxPoint x="258" y="410" as="sourcePoint" />
            <mxPoint x="258" y="470" as="targetPoint" />
          </mxGeometry>
        </mxCell>
        <mxCell id="WpgpHtHuyaECsouaymJJ-8" value="True" style="text;html=1;align=center;verticalAlign=middle;whiteSpace=wrap;rounded=0;fontSize=16;" vertex="1" parent="WIyWlLk6GJQsqaUBKTNV-1">
          <mxGeometry x="227.5" y="480" width="60" height="30" as="geometry" />
        </mxCell>
        <mxCell id="WpgpHtHuyaECsouaymJJ-10" value="" style="endArrow=classic;html=1;rounded=0;fontSize=12;startSize=8;endSize=8;curved=1;exitX=1;exitY=0.5;exitDx=0;exitDy=0;exitPerimeter=0;" edge="1" parent="WIyWlLk6GJQsqaUBKTNV-1" source="WpgpHtHuyaECsouaymJJ-0" target="WpgpHtHuyaECsouaymJJ-7">
          <mxGeometry width="50" height="50" relative="1" as="geometry">
            <mxPoint x="365" y="345" as="sourcePoint" />
            <mxPoint x="470" y="345" as="targetPoint" />
          </mxGeometry>
        </mxCell>
        <mxCell id="WpgpHtHuyaECsouaymJJ-7" value="False" style="text;html=1;align=center;verticalAlign=middle;whiteSpace=wrap;rounded=0;fontSize=16;" vertex="1" parent="WIyWlLk6GJQsqaUBKTNV-1">
          <mxGeometry x="400" y="330" width="60" height="30" as="geometry" />
        </mxCell>
        <mxCell id="WpgpHtHuyaECsouaymJJ-13" value="Checks the symbol next to the percent and compares to functions" style="shape=label;whiteSpace=wrap;html=1;fixedSize=1;rounded=0;" vertex="1" parent="WIyWlLk6GJQsqaUBKTNV-1">
          <mxGeometry x="510" y="315" width="120" height="60" as="geometry" />
        </mxCell>
        <mxCell id="WpgpHtHuyaECsouaymJJ-16" value="" style="endArrow=classic;html=1;rounded=0;fontSize=12;startSize=8;endSize=8;curved=1;exitX=0.5;exitY=1;exitDx=0;exitDy=0;" edge="1" parent="WIyWlLk6GJQsqaUBKTNV-1" source="WpgpHtHuyaECsouaymJJ-13" target="WpgpHtHuyaECsouaymJJ-17">
          <mxGeometry width="50" height="50" relative="1" as="geometry">
            <mxPoint x="530" y="520" as="sourcePoint" />
            <mxPoint x="570" y="440" as="targetPoint" />
          </mxGeometry>
        </mxCell>
        <mxCell id="WpgpHtHuyaECsouaymJJ-17" value="int _printf(const char *format, ...);&#xa;int _putchar (char c);&#xa;int functs(const char charac, va_list args);&#xa;int prnt_char(va_list args);&#xa;int prnt_str(va_list args);&#xa;int prnt_percen(va_list args);" style="rounded=0;whiteSpace=wrap;html=1;shape=process;backgroundOutline=1;" vertex="1" parent="WIyWlLk6GJQsqaUBKTNV-1">
          <mxGeometry x="430" y="410" width="280" height="140" as="geometry" />
        </mxCell>
        <mxCell id="WpgpHtHuyaECsouaymJJ-18" value="" style="endArrow=classic;html=1;rounded=0;fontSize=12;startSize=8;endSize=8;curved=1;exitX=0.467;exitY=1.019;exitDx=0;exitDy=0;exitPerimeter=0;" edge="1" parent="WIyWlLk6GJQsqaUBKTNV-1" source="WpgpHtHuyaECsouaymJJ-28" target="WpgpHtHuyaECsouaymJJ-19">
          <mxGeometry width="50" height="50" relative="1" as="geometry">
            <mxPoint x="530" y="520" as="sourcePoint" />
            <mxPoint x="560" y="610" as="targetPoint" />
          </mxGeometry>
        </mxCell>
        <mxCell id="WpgpHtHuyaECsouaymJJ-19" value="Return content" style="shape=parallelogram;perimeter=parallelogramPerimeter;whiteSpace=wrap;html=1;fixedSize=1;" vertex="1" parent="WIyWlLk6GJQsqaUBKTNV-1">
          <mxGeometry x="500" y="770" width="120" height="60" as="geometry" />
        </mxCell>
        <mxCell id="WpgpHtHuyaECsouaymJJ-22" value="" style="endArrow=classic;html=1;rounded=0;fontSize=12;startSize=8;endSize=8;curved=1;exitX=0;exitY=0.5;exitDx=0;exitDy=0;entryX=1;entryY=0.5;entryDx=0;entryDy=0;" edge="1" parent="WIyWlLk6GJQsqaUBKTNV-1" source="WpgpHtHuyaECsouaymJJ-19" target="WpgpHtHuyaECsouaymJJ-4">
          <mxGeometry width="50" height="50" relative="1" as="geometry">
            <mxPoint x="530" y="520" as="sourcePoint" />
            <mxPoint x="580" y="470" as="targetPoint" />
          </mxGeometry>
        </mxCell>
        <mxCell id="WpgpHtHuyaECsouaymJJ-23" value="" style="endArrow=classic;html=1;rounded=0;fontSize=12;startSize=8;endSize=8;curved=1;exitX=0.467;exitY=1.019;exitDx=0;exitDy=0;exitPerimeter=0;" edge="1" parent="WIyWlLk6GJQsqaUBKTNV-1" source="WpgpHtHuyaECsouaymJJ-17" target="WpgpHtHuyaECsouaymJJ-24">
          <mxGeometry width="50" height="50" relative="1" as="geometry">
            <mxPoint x="561" y="553" as="sourcePoint" />
            <mxPoint x="560" y="770" as="targetPoint" />
          </mxGeometry>
        </mxCell>
        <mxCell id="WpgpHtHuyaECsouaymJJ-24" value="If format[i] == &#39;\0&#39; ||&lt;div&gt;format [i] != functions&lt;/div&gt;" style="rhombus;whiteSpace=wrap;html=1;" vertex="1" parent="WIyWlLk6GJQsqaUBKTNV-1">
          <mxGeometry x="490" y="586" width="140" height="80" as="geometry" />
        </mxCell>
        <mxCell id="WpgpHtHuyaECsouaymJJ-25" value="" style="endArrow=classic;html=1;rounded=0;fontSize=12;startSize=8;endSize=8;curved=1;exitX=0;exitY=0.5;exitDx=0;exitDy=0;entryX=1;entryY=0.5;entryDx=0;entryDy=0;" edge="1" parent="WIyWlLk6GJQsqaUBKTNV-1" source="WpgpHtHuyaECsouaymJJ-26" target="WpgpHtHuyaECsouaymJJ-2">
          <mxGeometry width="50" height="50" relative="1" as="geometry">
            <mxPoint x="370" y="520" as="sourcePoint" />
            <mxPoint x="420" y="470" as="targetPoint" />
          </mxGeometry>
        </mxCell>
        <mxCell id="WpgpHtHuyaECsouaymJJ-27" value="" style="endArrow=classic;html=1;rounded=0;fontSize=12;startSize=8;endSize=8;curved=1;exitX=0;exitY=0.5;exitDx=0;exitDy=0;entryX=1;entryY=0.5;entryDx=0;entryDy=0;" edge="1" parent="WIyWlLk6GJQsqaUBKTNV-1" source="WpgpHtHuyaECsouaymJJ-24" target="WpgpHtHuyaECsouaymJJ-26">
          <mxGeometry width="50" height="50" relative="1" as="geometry">
            <mxPoint x="490" y="625" as="sourcePoint" />
            <mxPoint x="305" y="620" as="targetPoint" />
          </mxGeometry>
        </mxCell>
        <mxCell id="WpgpHtHuyaECsouaymJJ-26" value="True" style="text;html=1;align=center;verticalAlign=middle;whiteSpace=wrap;rounded=0;fontSize=16;" vertex="1" parent="WIyWlLk6GJQsqaUBKTNV-1">
          <mxGeometry x="370" y="610" width="60" height="30" as="geometry" />
        </mxCell>
        <mxCell id="WpgpHtHuyaECsouaymJJ-29" value="" style="endArrow=classic;html=1;rounded=0;fontSize=12;startSize=8;endSize=8;curved=1;exitX=0.467;exitY=1.019;exitDx=0;exitDy=0;exitPerimeter=0;" edge="1" parent="WIyWlLk6GJQsqaUBKTNV-1" source="WpgpHtHuyaECsouaymJJ-24" target="WpgpHtHuyaECsouaymJJ-28">
          <mxGeometry width="50" height="50" relative="1" as="geometry">
            <mxPoint x="555" y="667" as="sourcePoint" />
            <mxPoint x="559" y="770" as="targetPoint" />
          </mxGeometry>
        </mxCell>
        <mxCell id="WpgpHtHuyaECsouaymJJ-28" value="False" style="text;html=1;align=center;verticalAlign=middle;whiteSpace=wrap;rounded=0;fontSize=16;" vertex="1" parent="WIyWlLk6GJQsqaUBKTNV-1">
          <mxGeometry x="530" y="700" width="60" height="30" as="geometry" />
        </mxCell>
      </root>
    </mxGraphModel>
  </diagram>
</mxfile>
